<svg width="245" height="114" viewBox="0 0 245 114" fill="none" xmlns="http://www.w3.org/2000/svg">
<path d="M71.25 47.1074L61.5 79.5074C63.6 79.8074 65.55 79.9574 67.5 79.9574C69.75 79.9574 73.8 80.1074 77.85 77.1074C75.45 83.2574 69.45 84.0074 63.45 84.0074C62.4 84.0074 61.35 84.0074 60.15 83.8574L53.25 106.957C52.5 109.507 49.5 111.457 46.05 112.507C42.45 113.557 40.2 113.407 39.75 113.407C34.35 113.407 31.2 111.307 31.2 108.907C31.2 108.307 31.35 107.857 31.5 107.257C32.25 105.007 32.85 102.907 33.6 100.657L37.95 87.7574C38.7 85.5074 39.3 83.4074 40.05 81.1574C33.45 80.1074 27.15 79.2074 21.6 79.2074C21.15 79.2074 10.95 78.9074 3.75 83.2574L0 86.1074L0.45 81.6074C3.45 54.9074 51.9 21.3074 59.7 5.55741C61.95 1.2074 68.85 0.00740824 73.2 0.00740824C74.1 0.00740824 76.95 -0.142599 79.95 0.907406C82.95 2.10741 83.4 3.60741 83.4 4.5074C83.4 5.10741 83.25 5.8574 82.65 6.6074C76.95 14.7074 59.55 27.1574 42.45 39.7574C25.35 52.3574 8.85 66.3074 5.25 78.0074C15.15 71.7074 28.5 73.0574 41.85 75.9074C45.3 66.3074 48.3 56.7074 51.45 47.1074C52.5 44.2574 55.2 41.8574 58.65 40.5074C62.1 39.1574 64.35 39.0074 65.25 39.0074C69.3 39.0074 71.7 41.4074 71.7 44.2574C71.7 45.1574 71.55 46.0574 71.25 47.1074Z" fill="#333333"/>
<path d="M144.878 1.6574C156.878 2.10741 163.178 9.6074 164.828 17.8574C165.728 21.9074 166.028 25.6574 166.028 28.9574C166.028 34.2074 165.428 43.8074 160.778 57.6074C158.378 64.5074 155.378 71.2574 151.928 77.7074C141.428 97.0574 126.578 112.507 112.478 112.507C93.7277 112.507 86.3777 96.6074 86.3777 78.4574C86.3777 77.8574 85.6277 70.9574 89.3777 57.0074C91.1777 50.1074 93.7277 43.3574 97.1777 36.6074C107.078 17.2574 124.178 1.6574 144.878 1.6574ZM112.328 109.057C124.928 109.057 138.578 94.6574 148.178 76.5074C154.778 64.0574 159.578 50.2574 160.928 40.5074C161.678 35.7074 162.128 31.6574 162.128 28.6574C162.128 26.2574 161.828 23.2574 161.228 19.6574C160.778 16.2074 159.128 12.9074 156.428 9.75741C153.728 6.7574 149.828 5.10741 144.728 4.95741C135.278 4.95741 120.278 30.9074 111.278 57.0074C109.028 63.4574 107.078 69.9074 105.728 76.0574C104.228 82.3574 103.478 86.8574 103.328 89.5574C103.328 92.1074 103.178 93.7574 103.178 94.2074C103.178 102.607 105.578 109.057 112.328 109.057Z" fill="#333333"/>
<path d="M232.383 47.1074L222.633 79.5074C224.733 79.8074 226.683 79.9574 228.633 79.9574C230.883 79.9574 234.933 80.1074 238.983 77.1074C236.583 83.2574 230.583 84.0074 224.583 84.0074C223.533 84.0074 222.483 84.0074 221.283 83.8574L214.383 106.957C213.633 109.507 210.633 111.457 207.183 112.507C203.583 113.557 201.333 113.407 200.883 113.407C195.483 113.407 192.333 111.307 192.333 108.907C192.333 108.307 192.483 107.857 192.633 107.257C193.383 105.007 193.983 102.907 194.733 100.657L199.083 87.7574C199.833 85.5074 200.433 83.4074 201.183 81.1574C194.583 80.1074 188.283 79.2074 182.733 79.2074C182.283 79.2074 172.083 78.9074 164.883 83.2574L161.133 86.1074L161.583 81.6074C164.583 54.9074 213.033 21.3074 220.833 5.55741C223.083 1.2074 229.983 0.00740824 234.333 0.00740824C235.233 0.00740824 238.083 -0.142599 241.083 0.907406C244.083 2.10741 244.533 3.60741 244.533 4.5074C244.533 5.10741 244.383 5.8574 243.783 6.6074C238.083 14.7074 220.683 27.1574 203.583 39.7574C186.483 52.3574 169.983 66.3074 166.383 78.0074C176.283 71.7074 189.633 73.0574 202.983 75.9074C206.433 66.3074 209.433 56.7074 212.583 47.1074C213.633 44.2574 216.333 41.8574 219.783 40.5074C223.233 39.1574 225.483 39.0074 226.383 39.0074C230.433 39.0074 232.833 41.4074 232.833 44.2574C232.833 45.1574 232.683 46.0574 232.383 47.1074Z" fill="#333333"/>
</svg>
