<svg id="basket" viewBox="0 0 25 24" xmlns="http://www.w3.org/2000/svg">
<path fill-rule="evenodd" clip-rule="evenodd" d="M1.75 3C1.75 2.58579 2.08579 2.25 2.5 2.25H5.13158C5.50493 2.25 5.82143 2.52461 5.87408 2.89422L6.08306 4.36111H22.5C22.741 4.36111 22.9673 4.4769 23.1082 4.67233C23.2492 4.86775 23.2877 5.11902 23.2117 5.34769L20.0538 14.8477C19.9519 15.1543 19.6652 15.3611 19.3421 15.3611H7.65013L7.85024 16.7657C7.87188 16.9177 8.00085 17.0278 8.14978 17.0278H18.2895C19.8684 17.0278 21.1447 18.3107 21.1447 19.8889C21.1447 21.4671 19.8684 22.75 18.2895 22.75C16.7106 22.75 15.4342 21.4671 15.4342 19.8889C15.4342 19.3964 15.5585 18.9327 15.7775 18.5278H12.3804C12.5994 18.9327 12.7237 19.3964 12.7237 19.8889C12.7237 21.4671 11.4473 22.75 9.86842 22.75C8.28954 22.75 7.01316 21.4671 7.01316 19.8889C7.01316 19.3365 7.16956 18.8202 7.44058 18.3825C6.87649 18.1404 6.45644 17.6175 6.36523 16.9773L4.48085 3.75H2.5C2.08579 3.75 1.75 3.41421 1.75 3ZM9.86842 18.5278C9.12189 18.5278 8.51316 19.1352 8.51316 19.8889C8.51316 20.6426 9.12189 21.25 9.86842 21.25C10.615 21.25 11.2237 20.6426 11.2237 19.8889C11.2237 19.1352 10.615 18.5278 9.86842 18.5278ZM18.2895 18.5278C17.5429 18.5278 16.9342 19.1352 16.9342 19.8889C16.9342 20.6426 17.5429 21.25 18.2895 21.25C19.036 21.25 19.6447 20.6426 19.6447 19.8889C19.6447 19.1352 19.036 18.5278 18.2895 18.5278ZM7.43644 13.8611H18.8011L21.4603 5.86111H6.29675L7.43644 13.8611Z"/>
</svg>
