<svg id="basket" viewBox="0 0 22 22" xmlns="http://www.w3.org/2000/svg">
<path fill-rule="evenodd" clip-rule="evenodd" d="M0.479492 1.5C0.479492 1.08579 0.815279 0.75 1.22949 0.75H3.86107C4.23442 0.75 4.55092 1.02461 4.60357 1.39422L4.81255 2.86111H21.2295C21.4705 2.86111 21.6968 2.9769 21.8377 3.17233C21.9787 3.36775 22.0172 3.61902 21.9412 3.84769L18.7833 13.3477C18.6814 13.6543 18.3946 13.8611 18.0716 13.8611H6.37963L6.57973 15.2657C6.60138 15.4177 6.73034 15.5278 6.87928 15.5278H17.019C18.5978 15.5278 19.8742 16.8107 19.8742 18.3889C19.8742 19.9671 18.5978 21.25 17.019 21.25C15.4401 21.25 14.1637 19.9671 14.1637 18.3889C14.1637 17.8964 14.288 17.4327 14.507 17.0278H11.1099C11.3289 17.4327 11.4532 17.8964 11.4532 18.3889C11.4532 19.9671 10.1768 21.25 8.59791 21.25C7.01903 21.25 5.74265 19.9671 5.74265 18.3889C5.74265 17.8365 5.89905 17.3202 6.17007 16.8825C5.60598 16.6404 5.18593 16.1175 5.09472 15.4773L3.21034 2.25H1.22949C0.815279 2.25 0.479492 1.91421 0.479492 1.5ZM8.59791 17.0278C7.85138 17.0278 7.24265 17.6352 7.24265 18.3889C7.24265 19.1426 7.85138 19.75 8.59791 19.75C9.34444 19.75 9.95318 19.1426 9.95318 18.3889C9.95318 17.6352 9.34444 17.0278 8.59791 17.0278ZM17.019 17.0278C16.2724 17.0278 15.6637 17.6352 15.6637 18.3889C15.6637 19.1426 16.2724 19.75 17.019 19.75C17.7655 19.75 18.3742 19.1426 18.3742 18.3889C18.3742 17.6352 17.7655 17.0278 17.019 17.0278ZM6.16593 12.3611H17.5306L20.1898 4.36111H5.02624L6.16593 12.3611Z"/>
</svg>
