<svg id="close-modal" viewBox="0 0 16 16" xmlns="http://www.w3.org/2000/svg">
<path fill-rule="evenodd" clip-rule="evenodd" d="M1.04588 1.04488C1.27439 0.81665 1.58416 0.688454 1.90713 0.688454C2.2301 0.688454 2.53986 0.81665 2.76838 1.04488L8.00088 6.27738L13.2334 1.04488C13.345 0.925135 13.4796 0.829098 13.6291 0.762489C13.7786 0.69588 13.9399 0.660065 14.1036 0.657173C14.2672 0.65428 14.4297 0.684392 14.5815 0.745687C14.7333 0.806982 14.8711 0.898209 14.9868 1.01394C15.1026 1.12967 15.1938 1.26754 15.255 1.41928C15.3163 1.57104 15.3465 1.73359 15.3436 1.89723C15.3407 2.06088 15.3049 2.22226 15.2383 2.37176C15.1717 2.52126 15.0756 2.65581 14.9559 2.76738L9.72338 7.99988L14.9559 13.2324C15.0756 13.344 15.1717 13.4786 15.2383 13.6281C15.3049 13.7776 15.3407 13.9389 15.3436 14.1026C15.3465 14.2662 15.3163 14.4287 15.255 14.5805C15.1938 14.7323 15.1026 14.8701 14.9868 14.9858C14.8711 15.1016 14.7333 15.1928 14.5815 15.254C14.4297 15.3153 14.2672 15.3455 14.1036 15.3426C13.9399 15.3397 13.7786 15.3039 13.6291 15.2373C13.4796 15.1707 13.345 15.0746 13.2334 14.9549L8.00088 9.72238L2.76838 14.9549C2.53734 15.1702 2.23176 15.2874 1.91602 15.2818C1.60028 15.2761 1.29904 15.1483 1.07573 14.925C0.852441 14.7017 0.724537 14.4004 0.718963 14.0847C0.71339 13.769 0.830601 13.4635 1.04588 13.2324L6.27838 7.99988L1.04588 2.76738C0.81765 2.53887 0.689453 2.2291 0.689453 1.90613C0.689453 1.58316 0.81765 1.27341 1.04588 1.04488Z"/>
</svg>
