<svg id="enter" viewBox="0 0 20 22" xmlns="http://www.w3.org/2000/svg">
<path fill-rule="evenodd" clip-rule="evenodd" d="M11.5 1C11.5 0.585786 11.8358 0.25 12.25 0.25H17.25C18.7688 0.25 20 1.48122 20 3V19C20 20.5188 18.7688 21.75 17.25 21.75H12.25C11.8358 21.75 11.5 21.4142 11.5 21C11.5 20.5858 11.8358 20.25 12.25 20.25H17.25C17.9404 20.25 18.5 19.6904 18.5 19V3C18.5 2.30964 17.9404 1.75 17.25 1.75H12.25C11.8358 1.75 11.5 1.41421 11.5 1ZM8.71967 6.46967C9.01256 6.17678 9.48744 6.17678 9.78033 6.46967L13.7803 10.4697C14.0732 10.7626 14.0732 11.2374 13.7803 11.5303L9.78033 15.5303C9.48744 15.8232 9.01256 15.8232 8.71967 15.5303C8.42678 15.2374 8.42678 14.7626 8.71967 14.4697L11.4393 11.75H1.25C0.835786 11.75 0.5 11.4142 0.5 11C0.5 10.5858 0.835786 10.25 1.25 10.25H11.4393L8.71967 7.53033C8.42678 7.23744 8.42678 6.76256 8.71967 6.46967Z"/>
</svg>