<svg id="menu-2" xmlns="http://www.w3.org/2000/svg" viewBox="0 0 23.717 23.717"><path d="M23.323,22.927H18.579V.791A.791.791,0,0,0,17.789,0H5.93A.791.791,0,0,0,5.14.791V22.927H.4a.4.4,0,1,0,0,.791H23.323a.4.4,0,1,0,0-.791ZM7.511,2.372h8.7V22.927h-8.7ZM17,22.927V1.977a.4.4,0,0,0-.4-.4H7.116a.4.4,0,0,0-.4.4v20.95H5.93V.791H17.789V22.927Zm0,0" transform="translate(-0.001 -0.001)"></path><path d="M185.919,70.384a.4.4,0,0,0-.4.4v1.186H179.99V62.047a2.043,2.043,0,0,0,1.347-.878,1.845,1.845,0,0,1,2.84,0,2.043,2.043,0,0,0,1.348.878v4.779h.791V61.688a.4.4,0,0,0-.4-.4,1.282,1.282,0,0,1-1.082-.558,2.626,2.626,0,0,0-4.16,0,1.282,1.282,0,0,1-1.083.559.4.4,0,0,0-.4.4V72.361a.4.4,0,0,0,.4.4h6.324a.4.4,0,0,0,.4-.4V70.779a.4.4,0,0,0-.4-.4Zm0,0" transform="translate(-170.898 -56.944)"></path><path d="M185.92,358.4H179.6a.4.4,0,0,0-.4.4v4.743a.4.4,0,0,0,.4.4h6.324a.4.4,0,0,0,.4-.4v-4.743A.4.4,0,0,0,185.92,358.4Zm-.4,4.744H179.99v-3.953h5.534Zm0,0" transform="translate(-170.899 -341.796)"></path><path d="M275.043,238.934a1.186,1.186,0,0,0-1.186,1.186.4.4,0,0,1-.4.4.4.4,0,1,0,0,.791,1.186,1.186,0,0,0,1.186-1.186.4.4,0,1,1,.791,0,.4.4,0,0,0,.791,0A1.186,1.186,0,0,0,275.043,238.934Zm0,0" transform="translate(-260.417 -227.866)"></path></svg>