<svg id="menu-6" viewBox="0 0 25 24" xmlns="http://www.w3.org/2000/svg">
<path d="M20.8122 1.18039C20.7689 1.07575 20.6204 0.832321 20.1793 0.832275L0.959896 0.832368C0.430707 0.832368 4.63226e-05 1.26284 0 1.79203V21.0046C0 21.4456 0.243332 21.5941 0.347975 21.6375C0.389063 21.6545 0.456648 21.6752 0.542623 21.6752C0.675522 21.6751 0.852196 21.6256 1.04175 21.4361L5.67767 16.8018C5.8195 16.6601 5.81955 16.4302 5.6778 16.2884C5.53606 16.1466 5.3062 16.1466 5.16446 16.2884L0.72606 20.7252V18.7424H1.49715C1.69763 18.7424 1.86018 18.5799 1.86018 18.3794C1.86018 18.1789 1.69763 18.0164 1.49715 18.0164H0.726014V16.8928H1.49715C1.69763 16.8928 1.86018 16.7302 1.86018 16.5297C1.86018 16.3293 1.69763 16.1667 1.49715 16.1667H0.726014V15.0431H1.49705C1.69754 15.0431 1.86008 14.8805 1.86008 14.68C1.86008 14.4795 1.69754 14.317 1.49705 14.317H0.726014V13.1934H1.49705C1.69754 13.1934 1.86008 13.0309 1.86008 12.8304C1.86008 12.6299 1.69754 12.4673 1.49705 12.4673H0.726014V11.3437H1.49705C1.4971 11.3437 1.4971 11.3437 1.4971 11.3437C1.69758 11.3437 1.86013 11.1812 1.86013 10.9808C1.86013 10.7803 1.69763 10.6177 1.4971 10.6177H0.726014V9.49403H1.49715C1.69763 9.49403 1.86018 9.33149 1.86018 9.13101C1.86018 8.93052 1.69763 8.76798 1.49715 8.76798H0.726014V7.64438H1.49715C1.69763 7.64438 1.86018 7.48183 1.86018 7.2813C1.86018 7.08082 1.69763 6.91832 1.4971 6.91832H0.726014V5.79471H1.49705C1.69754 5.79471 1.86008 5.63217 1.86008 5.43169C1.86008 5.2312 1.69754 5.06865 1.49705 5.06865H0.726014V3.94506H1.49705C1.69754 3.94506 1.86008 3.78251 1.86008 3.58203C1.86008 3.38155 1.69754 3.219 1.49705 3.219H0.726014V1.79212C0.726014 1.66548 0.833111 1.55843 0.959896 1.55843H2.38747V2.32905C2.38747 2.52953 2.54996 2.69208 2.7505 2.69208C2.95098 2.69208 3.11353 2.52953 3.11353 2.32905V1.55838H4.23782V2.329C4.23782 2.52949 4.40032 2.69203 4.6008 2.69203H4.60085C4.80133 2.69203 4.96388 2.52949 4.96388 2.329V1.55838H6.08818V2.329C6.08818 2.52949 6.25067 2.69203 6.4512 2.69203C6.65169 2.69203 6.81424 2.52949 6.81424 2.329V1.55838H7.93853V2.32905C7.93853 2.52953 8.10103 2.69208 8.30156 2.69208C8.50205 2.69208 8.66459 2.52953 8.66459 2.32905V1.55838H9.78884V2.32905C9.78884 2.52953 9.95134 2.69208 10.1519 2.69208C10.3524 2.69208 10.5149 2.52953 10.5149 2.32905V1.55838H11.6392V2.32905C11.6392 2.52953 11.8017 2.69208 12.0023 2.69208C12.2028 2.69208 12.3653 2.52953 12.3653 2.32905V1.55838H13.4895L13.4896 2.32905C13.4896 2.52953 13.6521 2.69208 13.8526 2.69208C14.0532 2.69208 14.2157 2.52953 14.2157 2.32905L14.2156 1.55843H15.3399V2.32914C15.3399 2.52963 15.5024 2.69217 15.7029 2.69217C15.9034 2.69217 16.066 2.52963 16.066 2.32914V1.55838H17.1903V2.32905C17.1903 2.52953 17.3528 2.69208 17.5533 2.69208C17.7538 2.69208 17.9164 2.52953 17.9164 2.32905V1.55838H19.8998L6.42286 15.0303C6.28102 15.172 6.28102 15.4019 6.42276 15.5436C6.56451 15.6855 6.79441 15.6855 6.93616 15.5437L20.6107 1.87393C20.9226 1.56209 20.8555 1.28508 20.8122 1.18039Z"/>
<path d="M12.3456 4.68616C12.2746 4.51468 12.1046 4.41235 11.8908 4.41235H4.18377C3.85159 4.41235 3.5813 4.6826 3.5813 5.01474V12.7191C3.5813 12.9327 3.68363 13.1027 3.85502 13.1738C3.90736 13.1955 3.96156 13.2061 4.01604 13.2061C4.14009 13.2061 4.26516 13.151 4.37027 13.0459L9.7436 7.67453C9.88544 7.53278 9.88544 7.30292 9.74369 7.16118C9.60194 7.01933 9.37204 7.01933 9.2303 7.16109L4.30727 12.0823V5.13832H11.2536L10.3435 6.0481C10.2017 6.18983 10.2017 6.41974 10.3434 6.56149C10.4851 6.70332 10.715 6.70337 10.8568 6.56158L12.2175 5.20126C12.3687 5.05017 12.4166 4.8576 12.3456 4.68616Z"/>
<path d="M23.7171 7.77483C23.7171 7.57898 23.6412 7.39522 23.5032 7.25732L20.8307 4.58474C20.5454 4.29935 20.0811 4.29944 19.7957 4.58474L18.554 5.82651C18.5135 5.81784 18.4719 5.81298 18.4294 5.81298C18.2723 5.81298 18.1247 5.87403 18.0141 5.98479L17.3957 6.60338C17.3403 6.65869 17.2974 6.72321 17.2683 6.79349C17.1981 6.82258 17.1336 6.86543 17.0783 6.92069L16.4598 7.53933C16.349 7.65013 16.288 7.79762 16.288 7.9547C16.288 7.99704 16.2928 8.0386 16.3015 8.07899L5.80894 18.5719C5.73084 18.6498 5.67844 18.7481 5.65774 18.8545L4.93103 22.5092C4.89513 22.6899 4.95141 22.8757 5.08218 23.0068C5.18636 23.1106 5.32472 23.1678 5.47171 23.1678C5.50766 23.1678 5.54379 23.1643 5.57918 23.1572L9.23352 22.4306C9.34135 22.4092 9.43923 22.3568 9.51594 22.2796L20.0085 11.7869C20.049 11.7955 20.0906 11.8004 20.1331 11.8004C20.2903 11.8004 20.4378 11.7393 20.5483 11.6286L21.167 11.0099C21.2231 10.9539 21.2652 10.8891 21.2938 10.8201C21.3642 10.791 21.4288 10.748 21.4842 10.6926L22.1029 10.0739C22.2489 9.92767 22.3012 9.72316 22.2608 9.53467L23.5031 8.29216C23.641 8.1543 23.717 7.9705 23.7171 7.77483ZM16.7485 8.6588L17.2998 9.21023L8.36284 18.1474C8.31225 18.0628 8.25134 17.9836 8.17986 17.9121C8.06026 17.7926 7.91944 17.7016 7.76578 17.6418L16.7485 8.6588ZM5.6942 22.3942L5.82664 21.7282L6.36017 22.2618L5.6942 22.3942ZM9.6683 21.0998L9.03993 21.7289L7.21659 22.0915L5.99692 20.8717L6.35943 19.0482L6.96335 18.4443L6.98863 18.42C7.07809 18.3333 7.19741 18.2855 7.32448 18.2855C7.45473 18.2855 7.57615 18.3352 7.66647 18.4255C7.78136 18.5404 7.8306 18.7043 7.79826 18.8639C7.77413 18.9832 7.81128 19.1066 7.89725 19.1926C7.98323 19.2787 8.10663 19.3158 8.22582 19.2919C8.38535 19.2598 8.55026 19.3095 8.66459 19.4238C8.77937 19.5386 8.8287 19.7026 8.79647 19.8625C8.77238 19.9817 8.80958 20.105 8.89564 20.191C8.98166 20.2771 9.10502 20.3142 9.22421 20.2902C9.3836 20.258 9.54847 20.3077 9.6627 20.4219C9.84817 20.6073 9.85045 20.9117 9.6683 21.0998ZM10.4454 20.3236C10.3868 20.172 10.2975 20.0299 10.1761 19.9084C10.1047 19.837 10.0256 19.7759 9.94118 19.7253L16.3446 13.3216C16.4863 13.1799 16.4863 12.95 16.3446 12.8083C16.2028 12.6664 15.9729 12.6665 15.8312 12.8083L9.40778 19.2319C9.35003 19.1146 9.27326 19.0056 9.17798 18.9104C9.08274 18.8151 8.97411 18.7382 8.85673 18.6803L17.8131 9.72367L18.3644 10.2751L16.926 11.7135C16.7843 11.8552 16.7843 12.0851 16.926 12.2269C17.0678 12.3687 17.2977 12.3686 17.4394 12.2269L18.8777 10.7885L19.4289 11.3398L10.4454 20.3236ZM20.1331 11.0171L17.0712 7.9547L17.4937 7.53219L20.5556 10.5946L20.1331 11.0171ZM22.9897 7.77881L21.814 8.95462L21.4569 8.59743C21.3151 8.45563 21.0852 8.45554 20.9435 8.59738C20.8017 8.73908 20.8017 8.96898 20.9435 9.11078L21.4913 9.65873L21.0688 10.0812L18.007 7.01875L18.4294 6.59624L19.9269 8.09399C20.0686 8.23578 20.2985 8.23583 20.4403 8.09404C20.582 7.95225 20.5821 7.72244 20.4403 7.58065L19.1335 6.27366L20.309 5.09808C20.3107 5.09636 20.3155 5.09632 20.3173 5.09804L22.9898 7.77067C22.9918 7.77266 22.9916 7.77691 22.9897 7.77881Z"/>
</svg>
