<svg id="menu-1" xmlns="http://www.w3.org/2000/svg" viewBox="0 0 23.717 26.214">
    <path d="M.4,26.214a.4.4,0,1,1,0-.79H5.139V3.288a.794.794,0,0,1,.676-.782l.782.782H5.929V25.424h.79V4.474a.4.4,0,0,1,.4-.4h.273l.79.79H7.51V25.424h8.7V12.9l.791.791V25.424h.79V14.478l.791.791V25.424h4.743a.4.4,0,0,1,0,.79Zm8.3-1.581a.4.4,0,0,1-.4-.4V19.495a.4.4,0,0,1,.4-.4h6.324a.4.4,0,0,1,.4.4v4.743a.4.4,0,0,1-.4.4Zm.4-.79h5.534V19.89H9.092Zm-.4-5.534a.4.4,0,0,1-.4-.4V7.24a.4.4,0,0,1,.4-.4h.024A1.278,1.278,0,0,0,9.7,6.391l.561.561A2.05,2.05,0,0,1,9.092,7.6v9.918h5.534V16.332a.4.4,0,0,1,.79,0v1.581a.4.4,0,0,1-.4.4Zm13.979-1.7L19.04,12.969a.363.363,0,1,1,.513-.513l3.438,3.437V14.211h-.77a.363.363,0,1,1,0-.726h.77V12.362h-.77a.363.363,0,1,1,0-.726h.77V10.511h-.77a.363.363,0,1,1,0-.725h.77V8.662h-.77a.363.363,0,1,1,0-.726h.77V6.812h-.77a.363.363,0,1,1,0-.726h.77V4.963h-.77a.363.363,0,1,1,0-.726h.77V3.113h-.77a.363.363,0,1,1,0-.726h.77V.959a.237.237,0,0,0-.234-.233H21.329V1.5a.363.363,0,1,1-.725,0V.726H19.479V1.5a.363.363,0,0,1-.725,0V.726H17.628V1.5a.363.363,0,1,1-.725,0V.726H15.778V1.5a.363.363,0,1,1-.725,0V.726H13.928V1.5a.363.363,0,0,1-.726,0V.726H12.078V1.5a.363.363,0,0,1-.726,0V.726H10.228V1.5a.363.363,0,0,1-.726,0V.726H7.817L17.294,10.2a.363.363,0,0,1-.514.514L7.106,1.041A.617.617,0,0,1,6.9.348.618.618,0,0,1,7.538,0H22.757a.961.961,0,0,1,.96.959V16.172a.617.617,0,0,1-.348.633.5.5,0,0,1-.194.038A.7.7,0,0,1,22.676,16.6ZM12.649,15.542a.4.4,0,0,1,.4-.4.4.4,0,0,0,.4-.4,1.186,1.186,0,0,1,2.372,0,.4.4,0,1,1-.79,0,.4.4,0,0,0-.791,0,1.187,1.187,0,0,1-1.185,1.186A.4.4,0,0,1,12.649,15.542Zm6.7-6.329L16.973,6.843a.363.363,0,0,1,.513-.514L19.409,8.25V4.306H15.463l.91.909a.363.363,0,1,1-.513.514L14.5,4.37a.447.447,0,0,1,.327-.789h4.707a.6.6,0,0,1,.6.6v4.7a.467.467,0,0,1-.274.455.416.416,0,0,1-.16.031A.5.5,0,0,1,19.346,9.213Z"></path>
</svg>