<svg id="menu-7" xmlns="http://www.w3.org/2000/svg" viewBox="0 0 16.204 23.721">
    <path id="Контур_45" data-name="Контур 45" d="M61.365,281.648a1.581,1.581,0,0,0-1.186,2.627V286a1.186,1.186,0,1,0,2.372,0v-1.721a1.581,1.581,0,0,0-1.186-2.627Zm.531,2.164a.4.4,0,0,0-.136.3V286a.4.4,0,1,1-.791,0v-1.885a.4.4,0,0,0-.136-.3.771.771,0,0,1-.26-.583.791.791,0,0,1,1.581,0A.771.771,0,0,1,61.9,283.813Zm0,0" transform="translate(-57.017 -268.601)"></path>
    <path id="Контур_46" data-name="Контур 46" d="M34.575,77.7a.4.4,0,0,0,.15-.032.46.46,0,0,0,.13-.083l.047-.059a.3.3,0,0,0,.035-.071.246.246,0,0,0,.024-.071.577.577,0,0,0,.008-.079.416.416,0,0,0-.115-.281.409.409,0,0,0-.561,0,.46.46,0,0,0-.083.13.4.4,0,0,0-.032.15.391.391,0,0,0,.4.4Zm0,0" transform="translate(-32.598 -73.349)"></path>
    <path id="Контур_47" data-name="Контур 47" d="M136.973,77.7a.4.4,0,0,0,.15-.032.455.455,0,0,0,.13-.083l.047-.059a.3.3,0,0,0,.036-.071.252.252,0,0,0,.024-.071.61.61,0,0,0,.008-.079.416.416,0,0,0-.115-.281.409.409,0,0,0-.561,0,.46.46,0,0,0-.083.13.4.4,0,0,0-.032.15.392.392,0,0,0,.4.4Zm0,0" transform="translate(-130.253 -73.349)"></path>
    <path id="Контур_48" data-name="Контур 48" d="M34.725,418.284a.411.411,0,0,0-.431.083.457.457,0,0,0-.083.13.4.4,0,0,0-.032.15.391.391,0,0,0,.546.364.459.459,0,0,0,.13-.083l.047-.059a.3.3,0,0,0,.035-.071.249.249,0,0,0,.024-.071.576.576,0,0,0,.008-.079.416.416,0,0,0-.115-.281.405.405,0,0,0-.13-.083Zm0,0" transform="translate(-32.598 -398.881)"></path>
    <path id="Контур_49" data-name="Контур 49" d="M137.123,418.284a.411.411,0,0,0-.431.083.457.457,0,0,0-.083.13.4.4,0,0,0-.032.15.391.391,0,0,0,.546.364.454.454,0,0,0,.13-.083l.047-.059a.3.3,0,0,0,.036-.071.255.255,0,0,0,.024-.071.611.611,0,0,0,.008-.079.416.416,0,0,0-.115-.281A.406.406,0,0,0,137.123,418.284Zm0,0" transform="translate(-130.253 -398.881)"></path>
    <path id="Контур_50" data-name="Контур 50" d="M14.277,5.14a2.538,2.538,0,0,0-1.09.321c-.082.039-.164.079-.245.112-.49.21-.87.365-1.234.5a12.185,12.185,0,0,1-2.541.7c-.15.022-.29.04-.425.053V3.164A1.186,1.186,0,0,0,7.557,1.978H6.734a2.372,2.372,0,0,0-4.678,0H1.233A1.186,1.186,0,0,0,.047,3.164V20.557a1.186,1.186,0,0,0,1.186,1.186h.823a2.372,2.372,0,0,0,4.678,0h.823a1.186,1.186,0,0,0,1.186-1.186V8.9a12.933,12.933,0,0,1,1.686-.194,14.062,14.062,0,0,1,2.565.189c.13.018.268.044.408.07a4.076,4.076,0,0,0,1.174.1,1.976,1.976,0,0,0-.3-3.929ZM7.953,20.557a.4.4,0,0,1-.4.4H6.371a.4.4,0,0,0-.4.4,1.581,1.581,0,1,1-3.162,0,.4.4,0,0,0-.4-.4H1.233a.4.4,0,0,1-.4-.4V3.164a.4.4,0,0,1,.4-.4H2.418a.4.4,0,0,0,.4-.4,1.581,1.581,0,1,1,3.162,0,.4.4,0,0,0,.4.4H7.557a.4.4,0,0,1,.4.4v3.7a10.442,10.442,0,0,1-2.369-.277c-.1-.023-.2-.05-.3-.075A2.3,2.3,0,0,0,3.39,6.6a1.976,1.976,0,0,0,1,3.679,2.521,2.521,0,0,0,1.149-.363c.111-.057.221-.113.331-.161a13.42,13.42,0,0,1,1.462-.524c.2-.06.41-.111.616-.162ZM14.487,8.285a3.429,3.429,0,0,1-.939-.094c-.154-.028-.3-.056-.448-.076a14.832,14.832,0,0,0-2.706-.2,13.919,13.919,0,0,0-3.281.554,14.223,14.223,0,0,0-1.548.553c-.127.054-.254.119-.381.184a1.883,1.883,0,0,1-.791.277,1.186,1.186,0,0,1-.6-2.208.975.975,0,0,1,.519-.142,3.25,3.25,0,0,1,.77.138c.107.028.216.056.325.079a10.841,10.841,0,0,0,3.022.289c.263-.015.542-.044.853-.09a12.927,12.927,0,0,0,2.7-.741c.374-.141.765-.3,1.265-.514.091-.039.181-.081.272-.124a1.893,1.893,0,0,1,.755-.242,1.186,1.186,0,0,1,1.186,1.186,1.205,1.205,0,0,1-.976,1.168Zm0,0" transform="translate(-0.047 0)"></path>
</svg>