<svg id="menu-8" viewBox="0 0 25 25" xmlns="http://www.w3.org/2000/svg">
<path fill-rule="evenodd" clip-rule="evenodd" d="M3.68638 0.387597C3.68638 0.173533 3.85992 0 4.07398 0H20.926C21.1401 0 21.3136 0.173533 21.3136 0.387597V22.5059C21.3136 22.72 21.1401 22.8935 20.926 22.8935H18.8195C18.6054 22.8935 18.4319 22.72 18.4319 22.5059V2.8817H17.6015L12.8876 2.11764L12.5 3.02073L12.1124 2.11764L7.39854 2.8817H6.56808V22.5059C6.56808 22.72 6.39455 22.8935 6.18049 22.8935H4.07398C3.85992 22.8935 3.68638 22.72 3.68638 22.5059V0.387597ZM4.46158 0.775194V22.1183H5.79289V2.4941C5.79289 2.28004 5.96642 2.10651 6.18049 2.10651H18.8195C19.0336 2.10651 19.2071 2.28004 19.2071 2.4941V22.1183H20.5384V0.775194H4.46158Z"/>
<path fill-rule="evenodd" clip-rule="evenodd" d="M12.7266 1.26544C12.8277 1.33829 12.8876 1.45529 12.8876 1.57988V24.0858C12.8876 24.2104 12.8277 24.3274 12.7266 24.4002C12.6256 24.4731 12.4956 24.4929 12.3774 24.4535L7.6378 22.8736C7.47952 22.8208 7.37277 22.6727 7.37277 22.5059V3.02073C7.37277 2.85389 7.47952 2.70578 7.6378 2.65302L12.3774 1.21217C12.4956 1.17277 12.6256 1.19259 12.7266 1.26544ZM8.14796 3.30009V22.2265L12.1124 23.548V2.11764L8.14796 3.30009Z"/>
<path fill-rule="evenodd" clip-rule="evenodd" d="M12.2734 1.26544C12.1723 1.33829 12.1124 1.45529 12.1124 1.57988V24.0858C12.1124 24.2104 12.1723 24.3274 12.2734 24.4002C12.3744 24.4731 12.5044 24.4929 12.6226 24.4535L17.3622 22.8736C17.5205 22.8208 17.6272 22.6727 17.6272 22.5059V3.02073C17.6272 2.85389 17.5205 2.70578 17.3622 2.65302L12.6226 1.21217C12.5044 1.17277 12.3744 1.19259 12.2734 1.26544ZM16.852 3.30009V22.2265L12.8876 23.548V2.11764L16.852 3.30009Z"/>
<path fill-rule="evenodd" clip-rule="evenodd" d="M14.0799 11.5858C14.2939 11.5858 14.4675 11.7593 14.4675 11.9734V13.5533C14.4675 13.7673 14.2939 13.9408 14.0799 13.9408C13.8658 13.9408 13.6923 13.7673 13.6923 13.5533V11.9734C13.6923 11.7593 13.8658 11.5858 14.0799 11.5858Z"/>
<path fill-rule="evenodd" clip-rule="evenodd" d="M0 22.5059C1.87141e-08 22.2918 0.173533 22.1183 0.387597 22.1183H4.60061C4.81467 22.1183 4.9882 22.2918 4.9882 22.5059C4.9882 22.72 4.81467 22.8935 4.60061 22.8935L0.387597 22.8935C0.173533 22.8935 -1.87141e-08 22.72 0 22.5059Z"/>
<path fill-rule="evenodd" clip-rule="evenodd" d="M20.0118 22.5059C20.0118 22.2918 20.1853 22.1183 20.3994 22.1183H24.6124C24.8265 22.1183 25 22.2918 25 22.5059C25 22.72 24.8265 22.8935 24.6124 22.8935L20.3994 22.8935C20.1853 22.8935 20.0118 22.72 20.0118 22.5059Z"/>
</svg>
