<svg id="menu-3" xmlns="http://www.w3.org/2000/svg" viewBox="0 0 23.717 23.718">
    <path d="M.4,23.718a.4.4,0,0,1,0-.791H5.348V.791A.818.818,0,0,1,6.188,0H17.529a.817.817,0,0,1,.84.791V22.927h4.953a.4.4,0,0,1,0,.791ZM6.134.809l0,22.118h11.44V.794c0,.008-.019,0-.049,0H6.182A.069.069,0,0,0,6.134.809Zm7.116,13.424a.394.394,0,0,1,.4-.4.4.4,0,0,0,.4-.4,1.186,1.186,0,1,1,2.372,0,.4.4,0,1,1-.79,0,.4.4,0,1,0-.79,0,1.186,1.186,0,0,1-1.186,1.185A.394.394,0,0,1,13.251,14.233Z" transform="translate(0 0)"></path>
</svg>