<svg id="menu-4" xmlns="http://www.w3.org/2000/svg" viewBox="0 0 23.717 23.717"><path d="M23.323,22.927H18.579V.791A.791.791,0,0,0,17.789,0H5.93A.791.791,0,0,0,5.14.791V22.927H.4a.4.4,0,1,0,0,.791H23.323a.4.4,0,1,0,0-.791Zm-17.392,0V.791H17.789V22.927Zm0,0" transform="translate(-0.001 -0.001)"></path><path d="M155.344,42.347V38.086a.4.4,0,0,0-.4-.4,3.166,3.166,0,0,1-3.162-3.162.4.4,0,0,0-.4-.4H149.02a.4.4,0,0,0-.4.4,3.166,3.166,0,0,1-3.162,3.162.4.4,0,0,0-.4.4V50.735a.4.4,0,0,0,.4.4,3.166,3.166,0,0,1,3.162,3.162.4.4,0,0,0,.4.4h2.372a.4.4,0,0,0,.4-.4,3.166,3.166,0,0,1,3.162-3.162.4.4,0,0,0,.4-.4V47.264a1.179,1.179,0,0,0,.4-.877V43.224a1.179,1.179,0,0,0-.4-.877Zm-1.186,2.063a.4.4,0,1,0,0-.791v-.4a.4.4,0,0,1,.791,0v3.162a.4.4,0,0,1-.791,0Zm.4,5.95a3.959,3.959,0,0,0-3.538,3.537H149.4a3.96,3.96,0,0,0-3.538-3.538v-11.9a3.96,3.96,0,0,0,3.538-3.538h1.621a3.959,3.959,0,0,0,3.538,3.537v3.578a1.186,1.186,0,0,0-1.186,1.186v.4h-1.186a.4.4,0,1,0,0,.791h1.186v1.976a1.186,1.186,0,0,0,1.186,1.186Zm0,0" transform="translate(-138.347 -32.552)"></path><path d="M145.462,36.5a1.979,1.979,0,0,0,1.976-1.976.4.4,0,0,0-.4-.4h-1.581a.4.4,0,0,0-.4.4v1.581a.4.4,0,0,0,.4.4Zm.4-1.581h.723a1.193,1.193,0,0,1-.723.723Zm0,0" transform="translate(-138.347 -32.552)"></path><path d="M317.71,36.5a.4.4,0,0,0,.4-.4V34.528a.4.4,0,0,0-.4-.4h-1.581a.4.4,0,0,0-.4.4A1.979,1.979,0,0,0,317.71,36.5Zm-.4-1.581v.723a1.192,1.192,0,0,1-.723-.723Zm0,0" transform="translate(-301.108 -32.552)"></path><path d="M145.462,426.668a.4.4,0,0,0-.4.4v1.581a.4.4,0,0,0,.4.4h1.581a.4.4,0,0,0,.4-.4A1.979,1.979,0,0,0,145.462,426.668Zm.4,1.581v-.723a1.193,1.193,0,0,1,.723.723Zm0,0" transform="translate(-138.347 -406.904)"></path><path d="M317.71,426.668a1.979,1.979,0,0,0-1.976,1.976.4.4,0,0,0,.4.4h1.581a.4.4,0,0,0,.4-.4v-1.581A.4.4,0,0,0,317.71,426.668Zm-.4,1.581h-.723a1.193,1.193,0,0,1,.723-.723Zm0,0" transform="translate(-301.108 -406.904)"></path>
</svg>