<svg id="menu-5" xmlns="http://www.w3.org/2000/svg" viewBox="0 0 23.731 23.71">
    <path d="M11.552.309C11.463.394,8.964,3.057,6,6.226S.47,12.131.3,12.306l-.3.318V23.636l.117.117.117.117H12l.162-.155c.089-.085,2.588-2.748,5.554-5.917s5.532-5.908,5.7-6.087l.31-.325-.028-.368a3.116,3.116,0,0,0-2.153-2.7A6.454,6.454,0,0,0,19.8,8.185,4.708,4.708,0,0,1,17.317,7.8,3.968,3.968,0,0,1,15.3,5.78a4.158,4.158,0,0,1-.384-1.694,4.488,4.488,0,0,0-.294-1.494A4.174,4.174,0,0,0,12.276.275C11.852.116,11.748.12,11.552.309Zm.952.918a3.279,3.279,0,0,1,.93.83,2.538,2.538,0,0,1,.241.355c0,.025-9.985,10.632-10.839,11.513-.113.117-.117.118-.167.024a5.6,5.6,0,0,0-1.24-1.13l-.364-.213L6.52,6.79,11.975.974l.169.071A3.644,3.644,0,0,1,12.5,1.227Zm1.6,2.342a3.88,3.88,0,0,1,.052.574,5.642,5.642,0,0,0,.07.72,4.906,4.906,0,0,0,3.755,3.979,10.56,10.56,0,0,0,1.61.1l1.3.03-5.565,5.735L9.757,20.445,8.5,20.434a6.6,6.6,0,0,1-2.189-.206,4.049,4.049,0,0,1-2.482-2.2,4.146,4.146,0,0,1-.387-1.705,4.957,4.957,0,0,0-.284-1.486c-.044-.082.6-.783,5.389-5.854C11.539,5.816,14,3.237,14.019,3.254A1.27,1.27,0,0,1,14.1,3.569Zm7.875,5.805a2.458,2.458,0,0,1,.93,1.427c.046.223.042.267-.034.364-.048.06-2.484,2.666-5.413,5.79l-5.326,5.681L12,22.322a3.055,3.055,0,0,0-1.176-1.4c-.143-.095-.254-.188-.246-.206.032-.079,11.112-11.47,11.16-11.473A.763.763,0,0,1,21.977,9.375ZM1.152,13.549a3.715,3.715,0,0,1,1.061,1.1,3.6,3.6,0,0,1,.466,1.758A5.048,5.048,0,0,0,3.2,18.491a5.107,5.107,0,0,0,1.119,1.473l.268.23v.441a1.771,1.771,0,0,0,.7,1.6,1.12,1.12,0,0,1,.452.741v.128H5.019c-.68,0-.732-.007-.966-.125a3.05,3.05,0,0,1-.952-.889A2.838,2.838,0,0,1,2.677,20.5a7.811,7.811,0,0,0-.511-2.606,8.808,8.808,0,0,0-.942-1.817l-.458-.741v-.992a6.163,6.163,0,0,1,.04-.992A2.136,2.136,0,0,1,1.152,13.549Zm.021,3.986a7.115,7.115,0,0,1,.737,2.976,7.543,7.543,0,0,0,.121,1.041,3.719,3.719,0,0,0,.648,1.256l.241.3H.765l0-3.144C.768,16.395.729,16.627,1.173,17.535Zm5.172,3.494a6.21,6.21,0,0,0,.794.144l.354.032.177.394a4.577,4.577,0,0,0,.784,1.219l.254.288H6.516l-.032-.275a1.636,1.636,0,0,0-.629-1.1c-.378-.343-.5-.555-.5-.873v-.188l.275.122A5.579,5.579,0,0,0,6.345,21.029Zm3.384.238a2.343,2.343,0,0,1,1.1.648,2.489,2.489,0,0,1,.579,1.036l.031.155H10.024l-.3-.193a4.184,4.184,0,0,1-1.342-1.557l-.068-.163h.564A3.868,3.868,0,0,1,9.729,21.266Z" transform="translate(0 -0.161)" fill-rule="evenodd"></path>
</svg>