<svg id="phone" viewBox="0 0 21 20" xmlns="http://www.w3.org/2000/svg">
<path d="M20.474 16.0177C20.474 16.5029 20.4858 16.9864 20.474 17.4715C20.4302 18.9472 19.3487 20.0489 17.8815 19.9983C15.5231 19.9074 13.3147 19.2268 11.241 18.1453C5.02839 14.9379 1.45041 9.84218 0.520537 2.91027C0.330183 1.42618 1.48578 0.108861 3.04399 0.0313714C4.03619 -0.0174805 5.02334 -0.00231955 6.01217 0.0296869C6.59783 0.0478003 7.15952 0.266499 7.60323 0.649191C8.04694 1.03188 8.34577 1.55535 8.44971 2.132C8.62619 3.06175 8.85111 3.98164 9.12353 4.88793C9.46044 5.98794 9.11511 6.94308 8.28125 7.68428C7.7641 8.14247 7.82137 8.46759 8.2105 8.98475C9.19913 10.3285 10.3989 11.5033 11.7632 12.4633C12.1119 12.7025 12.3697 12.7699 12.6746 12.4044C13.6701 11.21 14.8864 10.991 16.3064 11.5823C16.9078 11.8333 17.5631 11.9192 18.2083 12.0254C19.5863 12.246 20.4504 13.245 20.474 14.6364C20.4824 15.0929 20.4757 15.5562 20.474 16.0177ZM18.9579 16.0312V14.7072C18.9377 13.9559 18.6345 13.5987 17.895 13.4539C17.4216 13.3612 16.9045 13.3578 16.48 13.1607C15.0767 12.5071 13.975 12.8003 13.0788 14.0367C12.7588 14.4814 12.3242 14.5151 11.8508 14.2372C9.53068 12.8837 7.60136 10.9515 6.25137 8.62931C5.98353 8.17448 6.06607 7.78703 6.41983 7.43496C6.74831 7.10985 7.07849 6.78304 7.39855 6.4495C7.71861 6.11596 7.88875 5.75378 7.72535 5.30401C7.41023 4.38941 7.17464 3.44931 7.02121 2.49418C6.92351 1.95344 6.59165 1.56263 5.99701 1.54915C5.00818 1.52894 4.01935 1.5222 3.03052 1.54915C2.38702 1.56936 2.04337 1.9585 2.01979 2.61042C2.01498 2.88341 2.03471 3.15628 2.07875 3.42574C2.68079 7.61531 4.77066 11.4482 7.96624 14.2237C10.7424 16.6747 14.0087 18.0897 17.681 18.5446C18.4121 18.6355 18.9124 18.2077 18.9461 17.4833C18.968 16.9998 18.9495 16.5164 18.9495 16.0312H18.9579Z"/>
</svg>
