<svg id="search" viewBox="0 0 20 20" xmlns="http://www.w3.org/2000/svg">
<path fill-rule="evenodd" clip-rule="evenodd" d="M0 9C0 4.16751 3.91751 0.25 8.75 0.25C13.5825 0.25 17.5 4.16751 17.5 9C17.5 11.1462 16.7273 13.1119 15.4449 14.6342L19.2804 18.4696C19.5732 18.7625 19.5732 19.2373 19.2804 19.5302C18.9875 19.8231 18.5126 19.8231 18.2197 19.5302L14.3843 15.6948C12.862 16.9773 10.8963 17.75 8.75 17.75C3.91751 17.75 0 13.8325 0 9ZM13.9576 14.0442C13.9268 14.0667 13.8975 14.0918 13.8697 14.1196C13.8419 14.1473 13.8168 14.1767 13.7943 14.2075C12.4893 15.4718 10.7105 16.25 8.75 16.25C4.74594 16.25 1.5 13.0041 1.5 9C1.5 4.99594 4.74594 1.75 8.75 1.75C12.7541 1.75 16 4.99594 16 9C16 10.9605 15.2219 12.7392 13.9576 14.0442Z"/>
</svg>
